<svg width="187" height="30" viewBox="0 0 187 30" fill="none" xmlns="http://www.w3.org/2000/svg">
<path d="M36.7637 25.2532V4.41208H44.2264C46.3974 4.41208 48.1183 4.97843 49.3899 6.11113C50.6616 7.24383 51.2974 8.78523 51.2974 10.7344C51.2974 12.0306 51.0019 13.1516 50.4098 14.0984C49.8177 15.0452 48.9845 15.777 47.9083 16.2947C46.832 16.8124 45.5671 17.0713 44.1137 17.0713H39.2788V25.2541H36.7637V25.2532ZM39.2798 14.8321H44.1428C45.5866 14.8321 46.726 14.4662 47.5592 13.7345C48.3924 13.0027 48.8095 12.0023 48.8095 10.7344C48.8095 9.46641 48.3924 8.468 47.5592 7.74109C46.7251 7.01417 45.5866 6.65023 44.1428 6.65023H39.2798V14.8331V14.8321Z" fill="#01213A"/>
<path d="M52.543 25.2532V10.4823H54.8073V12.8042H54.8627C55.133 12.0393 55.5617 11.4243 56.148 10.9582C56.7352 10.4921 57.4896 10.2585 58.4123 10.2585C58.6262 10.2585 58.8245 10.2682 59.0063 10.2867C59.1881 10.3052 59.3252 10.3237 59.4185 10.3422V12.7205C59.3252 12.6923 59.1463 12.6572 58.8809 12.6154C58.6155 12.5735 58.3102 12.5521 57.966 12.5521C57.1464 12.5521 56.4338 12.8411 55.8281 13.4192C55.2224 13.9972 54.9201 14.911 54.9201 16.1604V25.2522H52.5439L52.543 25.2532Z" fill="#01213A"/>
<path d="M66.434 25.5889C65.0739 25.5889 63.879 25.26 62.8494 24.6032C61.8199 23.9453 61.0187 23.0384 60.4461 21.8823C59.8735 20.7263 59.5867 19.397 59.5867 17.8955C59.5867 16.394 59.8735 15.0472 60.4461 13.8814C61.0187 12.7156 61.8199 11.8019 62.8494 11.1402C63.879 10.4785 65.0739 10.1466 66.434 10.1466C67.7942 10.1466 69.0007 10.4775 70.0254 11.1402C71.0501 11.8019 71.8493 12.7156 72.4219 13.8814C72.9946 15.0472 73.2814 16.3852 73.2814 17.8955C73.2814 19.4058 72.9946 20.7263 72.4219 21.8823C71.8493 23.0384 71.0501 23.9453 70.0254 24.6032C69.0007 25.26 67.8039 25.5889 66.434 25.5889ZM66.434 23.4345C67.8311 23.4345 68.9219 22.9284 69.7036 21.9164C70.4863 20.9044 70.8771 19.5644 70.8771 17.8945C70.8771 16.2247 70.4833 14.8526 69.6958 13.8318C68.9083 12.811 67.8204 12.3001 66.4331 12.3001C65.0457 12.3001 63.9568 12.8081 63.1703 13.825C62.3828 14.8419 61.989 16.1984 61.989 17.8955C61.989 19.5926 62.3799 20.917 63.1625 21.9242C63.9451 22.9314 65.035 23.4345 66.4321 23.4345H66.434Z" fill="#01213A"/>
<path d="M80.8474 25.4423C79.4872 25.4423 78.2924 25.1134 77.2628 24.4565C76.2332 23.7987 75.4321 22.8918 74.8594 21.7357C74.2868 20.5796 74 19.2504 74 17.7489C74 16.2474 74.2868 14.9006 74.8594 13.7348C75.4321 12.569 76.2332 11.6553 77.2628 10.9935C78.2924 10.3318 79.4872 10 80.8474 10C81.9654 10 82.9668 10.2219 83.8515 10.6646C84.7363 11.1074 85.4606 11.7166 86.0244 12.4902C86.5883 13.2638 86.9344 14.1503 87.0657 15.1478H84.6624C84.4854 14.2807 84.0781 13.5655 83.4393 13.0011C82.8015 12.4367 81.9372 12.1545 80.8474 12.1545C79.459 12.1545 78.3711 12.6624 77.5846 13.6793C76.7971 14.6962 76.4033 16.0527 76.4033 17.7498C76.4033 19.4469 76.7942 20.7714 77.5768 21.7785C78.3594 22.7857 79.4493 23.2888 80.8464 23.2888C81.9547 23.2888 82.8025 23.0163 83.3897 22.4704C83.9769 21.9245 84.3862 21.1995 84.6196 20.2955H87.0647C86.9344 21.2657 86.5874 22.1395 86.0235 22.918C85.4596 23.6965 84.7333 24.3125 83.8438 24.764C82.9542 25.2165 81.9547 25.4423 80.8464 25.4423H80.8474Z" fill="#01213A"/>
<path d="M94.819 25.5889C93.3753 25.5889 92.1425 25.2581 91.1226 24.5963C90.1028 23.9346 89.3221 23.0228 88.7815 21.8619C88.241 20.701 87.9707 19.3795 87.9707 17.8965C87.9707 16.4135 88.2546 15.0618 88.8233 13.896C89.3911 12.7302 90.1786 11.8146 91.1849 11.148C92.1911 10.4814 93.3461 10.1476 94.6508 10.1476C96.0207 10.1476 97.2078 10.4736 98.214 11.1266C99.2203 11.7795 99.9961 12.6884 100.541 13.8542C101.086 15.02 101.358 16.3677 101.358 17.8965V18.5543H90.3186C90.374 19.9994 90.7892 21.1749 91.5621 22.0789C92.335 22.9839 93.421 23.4354 94.8181 23.4354C95.871 23.4354 96.7304 23.1931 97.3964 22.7085C98.0624 22.2239 98.5076 21.5992 98.7313 20.8343H101.107C100.921 21.7763 100.535 22.6034 99.9475 23.3167C99.3603 24.03 98.6272 24.5876 97.7464 24.9885C96.8656 25.3894 95.8895 25.5899 94.819 25.5899V25.5889ZM90.3468 16.5108H98.9831C98.8528 15.2146 98.4007 14.1841 97.6278 13.4192C96.8549 12.6543 95.8622 12.2719 94.6518 12.2719C93.4414 12.2719 92.4526 12.6543 91.6895 13.4192C90.9253 14.1841 90.4781 15.2146 90.3478 16.5108H90.3468Z" fill="#01213A"/>
<path d="M108.067 25.5889C107.015 25.5889 106.06 25.4167 105.202 25.0712C104.345 24.7258 103.652 24.2022 103.12 23.4977C102.589 22.7941 102.29 21.9057 102.225 20.8333H104.573C104.74 22.6423 105.887 23.5473 108.011 23.5473C109.036 23.5473 109.844 23.3333 110.436 22.9041C111.027 22.475 111.323 21.9339 111.323 21.2819C111.323 20.7224 111.118 20.2748 110.708 19.939C110.298 19.6033 109.762 19.361 109.101 19.2121L106.725 18.6526C103.948 17.9996 102.561 16.6013 102.561 14.4565C102.561 13.6177 102.786 12.8743 103.238 12.2252C103.69 11.5771 104.319 11.0691 105.125 10.7003C105.93 10.3325 106.86 10.1476 107.913 10.1476C108.966 10.1476 109.857 10.3413 110.673 10.7286C111.489 11.1159 112.135 11.6637 112.615 12.3721C113.096 13.0806 113.35 13.9243 113.377 14.9042H111.057C111.047 14.1208 110.759 13.4727 110.191 12.9599C109.622 12.4471 108.864 12.1902 107.913 12.1902C106.962 12.1902 106.287 12.4091 105.747 12.848C105.206 13.2869 104.936 13.8221 104.936 14.4565C104.936 15.0161 105.141 15.4657 105.55 15.8062C105.961 16.1468 106.52 16.4008 107.227 16.5682L109.604 17.1277C111.019 17.4635 112.058 17.9646 112.72 18.6312C113.381 19.2978 113.711 20.1629 113.711 21.2255C113.711 22.1392 113.464 22.9226 112.97 23.5756C112.476 24.2285 111.804 24.7277 110.951 25.0722C110.098 25.4167 109.137 25.5899 108.065 25.5899L108.067 25.5889Z" fill="#01213A"/>
<path d="M120.506 25.5889C119.453 25.5889 118.499 25.4167 117.641 25.0712C116.784 24.7258 116.09 24.2022 115.559 23.4977C115.028 22.7941 114.729 21.9057 114.664 20.8333H117.012C117.179 22.6423 118.325 23.5473 120.45 23.5473C121.474 23.5473 122.282 23.3333 122.874 22.9041C123.466 22.475 123.762 21.9339 123.762 21.2819C123.762 20.7224 123.557 20.2748 123.147 19.939C122.736 19.6033 122.201 19.361 121.54 19.2121L119.164 18.6526C116.387 17.9996 114.999 16.6013 114.999 14.4565C114.999 13.6177 115.225 12.8743 115.677 12.2252C116.129 11.5771 116.757 11.0691 117.563 10.7003C118.369 10.3325 119.299 10.1476 120.352 10.1476C121.404 10.1476 122.296 10.3413 123.112 10.7286C123.927 11.1159 124.574 11.6637 125.054 12.3721C125.534 13.0806 125.788 13.9243 125.815 14.9042H123.496C123.486 14.1208 123.197 13.4727 122.629 12.9599C122.061 12.4471 121.302 12.1902 120.352 12.1902C119.401 12.1902 118.726 12.4091 118.185 12.848C117.645 13.2869 117.375 13.8221 117.375 14.4565C117.375 15.0161 117.58 15.4657 117.989 15.8062C118.399 16.1468 118.958 16.4008 119.666 16.5682L122.042 17.1277C123.458 17.4635 124.497 17.9646 125.158 18.6312C125.819 19.2978 126.15 20.1629 126.15 21.2255C126.15 22.1392 125.903 22.9226 125.409 23.5756C124.915 24.2285 124.242 24.7277 123.39 25.0722C122.537 25.4167 121.576 25.5899 120.504 25.5899L120.506 25.5889Z" fill="#01213A"/>
<path d="M134.119 25.2532V4.41208H147.213V6.65023H136.634V13.462H146.375V15.7002H136.634V25.2532H134.119Z" fill="#01213A"/>
<path d="M150.903 4.41208V25.2532H148.527V4.41208H150.903Z" fill="#01213A"/>
<path d="M159.373 25.5889C158.013 25.5889 156.818 25.26 155.789 24.6032C154.759 23.9453 153.958 23.0384 153.386 21.8823C152.813 20.7263 152.526 19.397 152.526 17.8955C152.526 16.394 152.813 15.0472 153.386 13.8814C153.958 12.7156 154.759 11.8019 155.789 11.1402C156.818 10.4785 158.013 10.1466 159.373 10.1466C160.734 10.1466 161.94 10.4775 162.965 11.1402C163.99 11.8019 164.789 12.7156 165.361 13.8814C165.934 15.0472 166.221 16.3852 166.221 17.8955C166.221 19.4058 165.934 20.7263 165.361 21.8823C164.789 23.0384 163.99 23.9453 162.965 24.6032C161.94 25.26 160.743 25.5889 159.373 25.5889ZM159.373 23.4345C160.771 23.4345 161.86 22.9284 162.643 21.9164C163.426 20.9044 163.817 19.5644 163.817 17.8945C163.817 16.2247 163.423 14.8526 162.635 13.8318C161.848 12.811 160.761 12.3001 159.373 12.3001C157.984 12.3001 156.896 12.8081 156.11 13.825C155.322 14.8419 154.928 16.1984 154.928 17.8955C154.928 19.5926 155.319 20.917 156.102 21.9242C156.885 22.9314 157.974 23.4345 159.372 23.4345H159.373Z" fill="#01213A"/>
<path d="M170.568 25.2532L165.984 10.4823H168.471L170.329 16.972C170.59 17.8673 170.84 18.781 171.077 19.7132C171.314 20.6455 171.554 21.569 171.797 22.4827C172.039 21.569 172.281 20.6455 172.523 19.7132C172.765 18.781 173.017 17.8673 173.277 16.972L175.15 10.4823H177.498L179.342 16.972C179.594 17.8575 179.838 18.7625 180.076 19.685C180.313 20.6085 180.553 21.5174 180.795 22.4127C181.038 21.5174 181.28 20.6085 181.522 19.685C181.764 18.7615 182.016 17.8575 182.276 16.972L184.177 10.4823H186.664L182.08 25.2532H179.593L177.65 18.5397C177.417 17.7281 177.193 16.901 176.979 16.0573C176.765 15.2136 176.546 14.3767 176.323 13.5467C176.108 14.3767 175.89 15.2136 175.666 16.0573C175.442 16.901 175.214 17.7291 174.982 18.5397L172.997 25.2532H170.566H170.568Z" fill="#01213A"/>
<path d="M2.94194 0H2.94097C1.31672 0 0 1.31792 0 2.94366V27.0563C0 28.6821 1.31672 30 2.94097 30H2.94194C4.5662 30 5.88292 28.6821 5.88292 27.0563V2.94366C5.88292 1.31792 4.5662 0 2.94194 0Z" fill="#01213A"/>
<path d="M11.6258 7.3898H11.6248C10.0006 7.3898 8.68384 8.70772 8.68384 10.3335V27.0563C8.68384 28.6821 10.0006 30 11.6248 30H11.6258C13.25 30 14.5668 28.6821 14.5668 27.0563V10.3335C14.5668 8.70772 13.25 7.3898 11.6258 7.3898Z" fill="#01213A"/>
<path d="M20.3099 0H20.3089C18.6846 0 17.3679 1.31792 17.3679 2.94366V27.0563C17.3679 28.6821 18.6846 30 20.3089 30H20.3099C21.9341 30 23.2508 28.6821 23.2508 27.0563V2.94366C23.2508 1.31792 21.9341 0 20.3099 0Z" fill="#01213A"/>
</svg>
